<?xml version="1.0" encoding="UTF-8" standalone="no"?>
<svg
   fill="none"
   viewBox="0 0 36 36"
   version="1.1"
   id="svg3"
   sodipodi:docname="favicon.svg"
   inkscape:version="1.3.2 (091e20e, 2023-11-25)"
   xmlns:inkscape="http://www.inkscape.org/namespaces/inkscape"
   xmlns:sodipodi="http://sodipodi.sourceforge.net/DTD/sodipodi-0.dtd"
   xmlns="http://www.w3.org/2000/svg"
   xmlns:svg="http://www.w3.org/2000/svg">
  <sodipodi:namedview
     id="namedview3"
     pagecolor="#ffffff"
     bordercolor="#000000"
     borderopacity="0.25"
     inkscape:showpageshadow="2"
     inkscape:pageopacity="0.0"
     inkscape:pagecheckerboard="0"
     inkscape:deskcolor="#d1d1d1"
     inkscape:zoom="13.942239"
     inkscape:cx="26.071852"
     inkscape:cy="15.564214"
     inkscape:window-width="1800"
     inkscape:window-height="1101"
     inkscape:window-x="0"
     inkscape:window-y="40"
     inkscape:window-maximized="1"
     inkscape:current-layer="svg3" />
  <path
     fill="url(#gradient)"
     d="M 13.05101,28 A 7.63,7.63 0 0 1 8.0510103,26 c -1.4,2.1 -0.35,4.35 0.6,5.55 0.14,0.17 0.41,0.07 0.47,-0.15 0.44,-1.8 2.9299997,-1.22 2.9299997,0.6 0,2.28 0.87,3.4 1.72,3.81 0.34,0.16 0.59,-0.2 0.49,-0.56 -0.31,-1.05 -0.29,-2.46 1.29,-3.25 3,-1.5 3.17,-4.83 2.5,-6 -0.67,0.67 -2.6,2 -5,2 z"
     id="path2"
     style="fill:url(#gradient)" />
  <defs
     id="defs3">
    <linearGradient
       id="gradient"
       x1="16"
       x2="16"
       y1="32"
       y2="24"
       gradientUnits="userSpaceOnUse"
       gradientTransform="translate(-4.9489897)">
      <stop
         stop-color="#000"
         id="stop2" />
      <stop
         offset="1"
         stop-color="#000"
         stop-opacity="0"
         id="stop3" />
    </linearGradient>
  </defs>
  <style
     id="style3">
    @media (prefers-color-scheme:dark){:root{filter:invert(100%)}}
  </style>
  <text
     xml:space="preserve"
     style="font-size:29.6246px;fill:#000000;stroke-width:2.46871"
     x="7.1870222"
     y="24.50503"
     id="text3"><tspan
       sodipodi:role="line"
       id="tspan3"
       x="7.1870222"
       y="24.50503"
       style="font-style:normal;font-variant:normal;font-weight:bold;font-stretch:normal;font-family:sans-serif;-inkscape-font-specification:'sans-serif Bold';stroke-width:2.46871">P</tspan></text>
</svg>
